<svg width="117" height="105" viewBox="0 0 117 105" fill="none" xmlns="http://www.w3.org/2000/svg">
<path d="M116.941 7.09642V0.975342H104.732V7.66817C108.768 7.33184 112.838 7.16368 116.941 7.09642Z" fill="black"/>
<path d="M104.732 9.65241V31.1098C104.732 31.9506 104.395 32.3542 103.756 32.3542C103.521 32.3542 103.319 32.3206 103.151 32.2533C102.983 32.186 102.781 32.0179 102.613 31.8161L86.8056 12.9147C82.5679 13.8901 78.3639 14.9999 74.2607 16.2443L99.0814 44.9327C100.191 46.2107 101.503 47.1524 102.983 47.7242C104.463 48.2959 106.211 48.5986 108.196 48.5986C109.339 48.5986 110.449 48.3968 111.492 48.0268C112.568 47.6233 113.476 47.0515 114.283 46.2443C115.09 45.4372 115.729 44.3946 116.234 43.1502C116.705 41.8721 116.974 40.3923 116.974 38.6434V8.50891C112.837 8.74434 108.734 9.14793 104.732 9.65241Z" fill="black"/>
<path d="M3.29596 43.7892C3.49776 44.0247 3.73318 44.2265 3.93498 44.4283C8.10538 41.435 12.5448 38.509 17.287 35.6502H16.648C15.0336 35.6502 13.9574 35.3475 13.3856 34.7085C12.8139 34.1031 12.5112 32.926 12.5112 31.2444V1.0426H0V32.4215C0 34.944 0.269058 37.1637 0.773543 39.0807C1.27803 40.9978 2.11883 42.5448 3.29596 43.7892Z" fill="black"/>
<path d="M59.1255 16.648V1.0426H46.6143V21.1547C50.6501 19.5404 54.8205 18.0269 59.1255 16.648Z" fill="black"/>
<path d="M46.6143 26.6031V47.556H59.1255V21.3564C54.8542 22.9708 50.6838 24.7533 46.6143 26.6031Z" fill="black"/>
<path d="M40.7622 35.6503H28.8564C22.3317 39.3498 16.177 43.2512 10.4932 47.2198C11.8721 47.4552 13.4528 47.5561 15.1681 47.5561H40.7622V35.6503Z" fill="black"/>
<path d="M64.9766 19.204V47.556H70.9631V17.2197C68.9452 17.8587 66.9609 18.4978 64.9766 19.204Z" fill="black"/>
<path d="M79.5744 4.60762C78.0946 2.92601 76.6147 1.71525 75.1013 1.0426C73.5878 0.369955 71.7381 0 69.5183 0C67.9712 0 66.5251 0.201794 65.1798 0.571749C65.1125 0.605381 65.0452 0.605381 64.9443 0.639013V14.8655C65.6506 14.6637 66.3569 14.4619 67.0968 14.2601C72.6461 12.713 78.4309 11.4013 84.3165 10.3251L79.5744 4.60762Z" fill="black"/>
<path d="M1.95041 65.6165H6.92798V67.0627H0.40332V55.5269H1.95041V65.6165Z" fill="black"/>
<path d="M17.5223 67.0627L16.5806 64.473H11.4012L10.4595 67.0627H8.81152L13.1165 55.5269H14.8653L19.1703 67.0627H17.5223ZM11.9057 63.0605H16.0425L13.9573 57.3766L11.9057 63.0605Z" fill="black"/>
<path d="M28.2501 61.1098C28.7882 61.3789 29.1918 61.7152 29.4945 62.186C29.7972 62.6569 29.9654 63.195 29.9654 63.8004C29.9654 64.7085 29.6291 65.482 28.99 66.121C28.351 66.76 27.5439 67.0627 26.6022 67.0627H21.6582V55.5269H26.2658C27.1739 55.5269 27.9138 55.8295 28.5528 56.4349C29.1918 57.0403 29.4945 57.7802 29.4945 58.6883C29.4945 59.6973 29.0909 60.5044 28.2501 61.1098ZM26.2658 56.973H23.1717V60.5044H26.2658C26.7367 60.5044 27.1403 60.3363 27.4766 59.9999C27.8129 59.6636 27.9811 59.2264 27.9811 58.7556C27.9811 58.2847 27.8129 57.8475 27.4766 57.5112C27.1403 57.1412 26.7367 56.973 26.2658 56.973ZM26.6358 65.6502C27.1403 65.6502 27.5775 65.482 27.9474 65.1121C28.2838 64.7421 28.4856 64.3049 28.4856 63.7668C28.4856 63.2623 28.3174 62.8251 27.9474 62.4551C27.5775 62.0851 27.1739 61.917 26.6694 61.917H23.2053V65.6502H26.6358Z" fill="black"/>
<path d="M42.5451 65.5493C41.4016 66.7264 39.989 67.2982 38.3074 67.2982C36.6258 67.2982 35.2132 66.7264 34.0697 65.5493C32.9262 64.3722 32.3545 62.9596 32.3545 61.3116C32.3545 59.63 32.9262 58.2174 34.0697 57.074C35.2132 55.9305 36.6258 55.3251 38.3074 55.3251C39.989 55.3251 41.4016 55.8968 42.5451 57.074C43.6886 58.2174 44.294 59.63 44.294 61.3116C44.2603 62.9596 43.6886 64.3722 42.5451 65.5493ZM35.1123 64.5067C35.9531 65.3811 37.0294 65.7847 38.2738 65.7847C39.5518 65.7847 40.5944 65.3475 41.4352 64.5067C42.276 63.6322 42.7132 62.5896 42.7132 61.3116C42.7132 60.0336 42.276 58.9574 41.4352 58.1166C40.5944 57.2421 39.5182 56.8385 38.2738 56.8385C36.9957 56.8385 35.9531 57.2757 35.1123 58.1166C34.2715 58.991 33.8343 60.0336 33.8343 61.3116C33.8679 62.556 34.2715 63.6322 35.1123 64.5067Z" fill="black"/>
<path d="M54.1139 67.0627L51.5242 62.6569H48.8V67.0627H47.2529V55.5269H51.8606C52.8359 55.5269 53.7103 55.8632 54.383 56.5695C55.0893 57.2757 55.4256 58.1165 55.4256 59.0919C55.4256 59.8318 55.1901 60.5044 54.7529 61.1434C54.3157 61.7825 53.744 62.186 53.0377 62.4551L55.7619 67.0627H54.1139ZM48.8 56.973V61.278H51.8942C52.4659 61.278 52.9368 61.0762 53.3404 60.639C53.744 60.2017 53.9458 59.6973 53.9458 59.1255C53.9458 58.5201 53.744 58.0156 53.3404 57.6121C52.9368 57.2085 52.4659 56.973 51.8942 56.973H48.8Z" fill="black"/>
<path d="M66.0863 67.0627L65.1446 64.473H59.9652L59.0235 67.0627H57.4092L61.7141 55.5269H63.4294L67.7343 67.0627H66.0863ZM60.4697 63.0605H64.6065L62.5213 57.3766L60.4697 63.0605Z" fill="black"/>
<path d="M76.7486 55.5605V57.0067H73.3517V67.0964H71.8383V57.0067H68.4414V55.5605H76.7486Z" fill="black"/>
<path d="M88.3517 65.5493C87.2082 66.7264 85.7957 67.2982 84.114 67.2982C82.4324 67.2982 81.0199 66.7264 79.8764 65.5493C78.7329 64.3722 78.1611 62.9596 78.1611 61.3116C78.1611 59.63 78.7329 58.2174 79.8764 57.074C81.0199 55.9305 82.4324 55.3251 84.114 55.3251C85.7957 55.3251 87.2082 55.8968 88.3517 57.074C89.4952 58.2174 90.1006 59.63 90.1006 61.3116C90.1006 62.9596 89.5288 64.3722 88.3517 65.5493ZM80.9526 64.5067C81.7934 65.3811 82.8697 65.7847 84.114 65.7847C85.3584 65.7847 86.4347 65.3475 87.2755 64.5067C88.1163 63.6322 88.5535 62.5896 88.5535 61.3116C88.5535 60.0336 88.1163 58.9574 87.2755 58.1166C86.4347 57.2421 85.3584 56.8385 84.114 56.8385C82.836 56.8385 81.7934 57.2757 80.9526 58.1166C80.1118 58.991 79.6746 60.0336 79.6746 61.3116C79.6746 62.556 80.1118 63.6322 80.9526 64.5067Z" fill="black"/>
<path d="M93.0938 55.5605H94.6408V67.0964H93.0938V55.5605Z" fill="black"/>
<path d="M105.066 67.0627L102.476 62.6569H99.7522V67.0627H98.2051V55.5269H102.813C103.788 55.5269 104.662 55.8632 105.335 56.5695C106.041 57.2757 106.378 58.1165 106.378 59.0919C106.378 59.8318 106.142 60.5044 105.705 61.1434C105.268 61.7825 104.696 62.186 103.99 62.4551L106.714 67.0627H105.066ZM99.7858 56.973V61.278H102.88C103.452 61.278 103.923 61.0762 104.326 60.639C104.73 60.2017 104.932 59.6973 104.932 59.1255C104.932 58.5201 104.73 58.0156 104.326 57.6121C103.923 57.2085 103.452 56.973 102.88 56.973H99.7858Z" fill="black"/>
<path d="M110.987 65.6165H116.334V67.0627H109.439V55.5269H116.233V56.973H110.953V60.5381H115.83V61.9843H110.987V65.6165Z" fill="black"/>
<path d="M4.97833 74.9327C6.45815 74.9327 7.70255 75.4709 8.71152 76.5135C9.72048 77.5561 10.1913 78.8677 10.1913 80.4148C10.1913 81.9619 9.68685 83.2399 8.71152 84.3161C7.73618 85.3924 6.49179 85.8969 4.97833 85.8969H0.707031V74.9327H4.97833ZM4.97833 84.5516C6.0882 84.5516 6.99627 84.148 7.73618 83.3744C8.44246 82.6009 8.81241 81.6256 8.81241 80.4484C8.81241 79.2713 8.44246 78.296 7.73618 77.5224C7.0299 76.7489 6.12183 76.3453 4.97833 76.3453H2.15322V84.5516H4.97833Z" fill="black"/>
<path d="M14.4263 74.9327L13.4174 78.7332H12.2402L12.8792 74.9327H14.4263Z" fill="black"/>
<path d="M17.1172 74.731H19.3369V85.9305H17.1172V74.731Z" fill="black"/>
<path d="M28.6541 74.731H30.8738V85.9305H29.1922L24.3828 79.0695V85.9305H22.1631V74.731H23.8447L28.6541 81.5247V74.731Z" fill="black"/>
<path d="M40.1893 74.731H42.409V85.9305H40.7274L35.918 79.0695V85.9305H33.6982V74.731H35.3799L40.1893 81.5583V74.731Z" fill="black"/>
<path d="M54.6846 84.4506C53.5411 85.5941 52.1622 86.1323 50.5479 86.1323C48.9335 86.1323 47.5546 85.5605 46.4111 84.4506C45.2676 83.3071 44.7295 81.9619 44.7295 80.3139C44.7295 78.6659 45.3012 77.287 46.4111 76.1771C47.5546 75.0336 48.8999 74.4955 50.5479 74.4955C52.1959 74.4955 53.5411 75.0672 54.6846 76.1771C55.8281 77.3206 56.3663 78.6659 56.3663 80.3139C56.3663 81.9619 55.7945 83.3408 54.6846 84.4506ZM47.9582 82.9372C48.6645 83.6435 49.5053 83.9798 50.5479 83.9798C51.5568 83.9798 52.4313 83.6435 53.1376 82.9372C53.8438 82.2645 54.1802 81.3565 54.1802 80.3139C54.1802 79.2376 53.8438 78.3632 53.1376 77.6906C52.4313 77.0179 51.5905 76.6479 50.5479 76.6479C49.5389 76.6479 48.6645 76.9843 47.9582 77.6906C47.2519 78.3968 46.9156 79.2713 46.9156 80.3139C46.9156 81.3901 47.2855 82.2645 47.9582 82.9372Z" fill="black"/>
<path d="M60.9758 85.9305L57.209 74.731H59.5969L62.3211 83.3408L65.0453 74.731H67.4668L63.7 85.9305H60.9758Z" fill="black"/>
<path d="M76.0424 85.9305L75.3361 83.9126H70.7285L70.0559 85.9305H67.668L71.6029 74.731H74.3272L78.2621 85.9305H76.0424ZM71.4348 81.8274H74.5962L72.9819 77.2534L71.4348 81.8274Z" fill="black"/>
<path d="M86.7048 74.731V76.8498H83.6778V85.9305H81.4581V76.8498H78.4648V74.731H86.7048Z" fill="black"/>
<path d="M88.7227 74.731H90.9424V85.9305H88.7227V74.731Z" fill="black"/>
<path d="M103.217 84.4506C102.073 85.5941 100.694 86.1323 99.0801 86.1323C97.4658 86.1323 96.0868 85.5605 94.9433 84.4506C93.7998 83.3071 93.2617 81.9619 93.2617 80.3139C93.2617 78.6659 93.8335 77.287 94.9433 76.1771C96.0868 75.0336 97.4321 74.4955 99.0801 74.4955C100.694 74.4955 102.073 75.0672 103.217 76.1771C104.36 77.3206 104.898 78.6659 104.898 80.3139C104.898 81.9619 104.327 83.3408 103.217 84.4506ZM96.4904 82.9372C97.1967 83.6435 98.0375 83.9798 99.0801 83.9798C100.123 83.9798 100.964 83.6435 101.67 82.9372C102.376 82.2645 102.712 81.3565 102.712 80.3139C102.712 79.2376 102.376 78.3632 101.67 77.6906C100.964 76.9843 100.123 76.6479 99.0801 76.6479C98.0711 76.6479 97.1967 76.9843 96.4904 77.6906C95.7841 78.3968 95.4478 79.2713 95.4478 80.3139C95.4478 81.3901 95.8178 82.2645 96.4904 82.9372Z" fill="black"/>
<path d="M113.71 74.731H115.93V85.9305H114.248L109.438 79.0695V85.9305H107.219V74.731H108.9L113.71 81.5583V74.731Z" fill="black"/>
<path d="M34.3045 93.5649H36.5242V104.764H34.8426L30.0332 97.9035V104.764H27.8135V93.5649H29.4951L34.3045 100.392V93.5649Z" fill="black"/>
<path d="M46.9848 104.764L46.2785 102.747H41.6709L40.9982 104.764H38.6104L42.5453 93.5649H45.2695L49.2045 104.764H46.9848ZM42.3772 100.695H45.5386L43.9243 96.121L42.3772 100.695Z" fill="black"/>
<path d="M57.9137 93.5649V95.6838H54.8868V104.764H52.6671V95.6838H49.6738V93.5649H57.9137Z" fill="black"/>
<path d="M64.3387 105C63.0943 105 62.0517 104.664 61.2781 103.957C60.471 103.251 60.0674 102.309 60.0674 101.132V93.5986H62.2535V100.964C62.2535 101.536 62.4216 102.007 62.758 102.343C63.0943 102.679 63.6324 102.848 64.3387 102.848C65.045 102.848 65.5831 102.679 65.9194 102.343C66.2557 102.007 66.4239 101.536 66.4239 100.964V93.5986H68.6436V101.132C68.6436 102.309 68.24 103.251 67.4329 103.957C66.6257 104.63 65.6167 105 64.3387 105Z" fill="black"/>
<path d="M77.7924 104.764L75.539 100.863H73.8574V104.764H71.6377V93.5649H76.1108C77.1534 93.5649 78.0278 93.9349 78.7677 94.6412C79.5076 95.3811 79.844 96.2555 79.844 97.2645C79.844 97.9708 79.6422 98.6098 79.2386 99.1815C78.835 99.7869 78.3305 100.224 77.6579 100.527L80.1467 104.764H77.7924ZM73.8574 95.6165V98.9461H76.1444C76.548 98.9461 76.918 98.7779 77.2207 98.4752C77.5233 98.1389 77.6579 97.769 77.6579 97.2981C77.6579 96.8273 77.5233 96.4573 77.2207 96.121C76.918 95.7847 76.548 95.6501 76.1444 95.6501H73.8574V95.6165Z" fill="black"/>
<path d="M84.7188 102.646H89.4273V104.764H82.499V93.5649H89.36V95.6838H84.7188V98.0717H88.9564V100.157H84.7188V102.646Z" fill="black"/>
<path d="M94.2041 102.646H98.4754V104.764H91.9844V93.5649H94.2041V102.646Z" fill="black"/>
<path d="M102.947 102.646H107.219V104.764H100.728V93.5649H102.947V102.646Z" fill="black"/>
<path d="M111.726 102.646H116.434V104.764H109.506V93.5649H116.367V95.6838H111.726V98.0717H115.963V100.157H111.726V102.646Z" fill="black"/>
<path d="M25.5874 103.677C17.1315 103.677 8.67561 103.677 0.219727 103.677H25.5874Z" fill="black"/>
<path d="M25.5874 103.677C17.1315 103.677 8.67561 103.677 0.219727 103.677" stroke="#1D1D1B" stroke-width="2.0839" stroke-miterlimit="10"/>
</svg>
