<?xml version="1.0" encoding="utf-8"?>
<!-- Generator: Adobe Illustrator 27.8.0, SVG Export Plug-In . SVG Version: 6.00 Build 0)  -->
<svg version="1.1" id="Calque_2_00000001661010935185191140000013937638277856643203_"
	 xmlns="http://www.w3.org/2000/svg" xmlns:xlink="http://www.w3.org/1999/xlink" x="0px" y="0px" viewBox="0 0 350.7 144.5"
	 style="enable-background:new 0 0 350.7 144.5;" xml:space="preserve">
<g>
	<path d="M349.5,21.1V2.9h-36.3v19.9C325.2,21.8,337.3,21.3,349.5,21.1z"/>
	<path d="M313.2,28.7v63.8c0,2.5-1,3.7-2.9,3.7c-0.7,0-1.3-0.1-1.8-0.3c-0.5-0.2-1.1-0.7-1.6-1.3l-47-56.2
		c-12.6,2.9-25.1,6.2-37.3,9.9l73.8,85.3c3.3,3.8,7.2,6.6,11.6,8.3c4.4,1.7,9.6,2.6,15.5,2.6c3.4,0,6.7-0.6,9.8-1.7
		c3.2-1.2,5.9-2.9,8.3-5.3c2.4-2.4,4.3-5.5,5.8-9.2c1.4-3.8,2.2-8.2,2.2-13.4V25.3C337.3,26,325.1,27.2,313.2,28.7L313.2,28.7z"/>
	<path d="M11.6,130.2c0.6,0.7,1.3,1.3,1.9,1.9c12.4-8.9,25.6-17.6,39.7-26.1h-1.9c-4.8,0-8-0.9-9.7-2.8c-1.7-1.8-2.6-5.3-2.6-10.3
		V3.1H1.8v93.3c0,7.5,0.8,14.1,2.3,19.8S8.1,126.5,11.6,130.2L11.6,130.2z"/>
	<path d="M177.6,49.5V3.1h-37.2v59.8C152.4,58.1,164.8,53.6,177.6,49.5z"/>
	<path d="M140.4,79.1v62.3h37.2V63.5C164.9,68.3,152.5,73.6,140.4,79.1L140.4,79.1z"/>
	<path d="M123,106H87.6c-19.4,11-37.7,22.6-54.6,34.4c4.1,0.7,8.8,1,13.9,1H123V106L123,106z"/>
	<path d="M195,57.1v84.3h17.8V51.2C206.8,53.1,200.9,55,195,57.1z"/>
	<path d="M238.4,13.7c-4.4-5-8.8-8.6-13.3-10.6S215.1,0,208.5,0c-4.6,0-8.9,0.6-12.9,1.7c-0.2,0.1-0.4,0.1-0.7,0.2v42.3
		c2.1-0.6,4.2-1.2,6.4-1.8c16.5-4.6,33.7-8.5,51.2-11.7L238.4,13.7L238.4,13.7z"/>
</g>
</svg>
