<?xml version="1.0" encoding="UTF-8"?>
<svg id="Calque_2" data-name="Calque 2" xmlns="http://www.w3.org/2000/svg" viewBox="0 0 711.68 144.47">
  <defs>
    <style>
      .cls-1 {
        fill: #242752;
        stroke-width: 0px;
      }

      .cls-2 {
        fill: none;
        stroke: #242752;
        stroke-miterlimit: 10;
        stroke-width: 1.97px;
      }
    </style>
  </defs>
  <g id="Calque_1-2" data-name="Calque 1">
    <g>
      <g>
        <path class="cls-1" d="m711.68,21.07V2.87h-36.32v19.91c11.99-.94,24.11-1.52,36.32-1.71Z"/>
        <path class="cls-1" d="m675.35,28.75v63.8c0,2.46-.96,3.69-2.87,3.69-.69,0-1.3-.1-1.85-.31-.55-.2-1.1-.65-1.64-1.33l-46.95-56.2c-12.63,2.91-25.07,6.22-37.29,9.88l73.78,85.31c3.28,3.83,7.15,6.6,11.59,8.31,4.44,1.71,9.61,2.56,15.49,2.56,3.42,0,6.7-.58,9.85-1.74,3.15-1.16,5.92-2.94,8.31-5.34,2.39-2.39,4.31-5.47,5.75-9.23,1.44-3.76,2.15-8.24,2.15-13.44V25.26c-12.23.75-24.34,1.93-36.32,3.5Z"/>
        <path class="cls-1" d="m373.76,130.24c.61.66,1.27,1.27,1.94,1.87,12.37-8.87,25.63-17.63,39.74-26.12h-1.89c-4.78,0-8.02-.92-9.72-2.76-1.71-1.84-2.56-5.28-2.56-10.33V3.07h-37.24v93.3c0,7.5.75,14.09,2.25,19.75,1.5,5.66,3.99,10.37,7.47,14.12Z"/>
        <path class="cls-1" d="m539.8,49.52V3.07h-37.24v59.8c12.03-4.77,24.44-9.25,37.24-13.35Z"/>
        <path class="cls-1" d="m502.56,79.07v62.32h37.24V63.47c-12.72,4.87-25.14,10.1-37.24,15.61Z"/>
        <path class="cls-1" d="m485.22,105.99h-35.48c-19.42,10.98-37.67,22.56-54.57,34.38,4.14.67,8.77,1.01,13.89,1.01h76.16v-35.4Z"/>
        <path class="cls-1" d="m557.15,57.11v84.28h17.85V51.16c-6.01,1.9-11.96,3.89-17.85,5.95Z"/>
        <path class="cls-1" d="m600.57,13.71c-4.37-5.04-8.8-8.59-13.3-10.64-4.5-2.05-10.03-3.07-16.57-3.07-4.64,0-8.94.58-12.89,1.74-.22.07-.44.14-.66.21v42.29c2.12-.61,4.25-1.21,6.39-1.8,16.54-4.59,33.66-8.53,51.24-11.74l-14.2-16.99Z"/>
      </g>
      <g>
        <path class="cls-1" d="m4.31,31.68h13.98v4.07H0V3.34h4.31v28.34Z"/>
        <path class="cls-1" d="m48.11,35.75l-2.64-7.27h-14.57l-2.65,7.27h-4.58L35.75,3.34h4.86l12.09,32.41h-4.58Zm-15.75-11.3h11.64l-5.82-16-5.82,16Z"/>
        <path class="cls-1" d="m78.3,18.95c1.48.71,2.66,1.73,3.54,3.06.88,1.33,1.32,2.86,1.32,4.58,0,2.59-.91,4.77-2.73,6.53-1.82,1.76-4.04,2.64-6.67,2.64h-13.98V3.34h12.97c2.53,0,4.68.85,6.44,2.55,1.76,1.7,2.64,3.8,2.64,6.3,0,2.87-1.17,5.12-3.52,6.76Zm-5.56-11.58h-8.66v9.91h8.66c1.36,0,2.5-.48,3.43-1.44.93-.96,1.39-2.13,1.39-3.52s-.47-2.52-1.41-3.5c-.94-.97-2.08-1.46-3.4-1.46Zm1.02,24.36c1.45,0,2.67-.51,3.66-1.53.99-1.02,1.48-2.27,1.48-3.75s-.5-2.69-1.5-3.7c-1-1.02-2.22-1.53-3.63-1.53h-9.68v10.51h9.68Z"/>
        <path class="cls-1" d="m118.47,31.45c-3.26,3.27-7.23,4.91-11.92,4.91s-8.66-1.64-11.9-4.91c-3.24-3.27-4.86-7.24-4.86-11.9s1.62-8.67,4.86-11.92c3.24-3.26,7.21-4.89,11.9-4.89s8.67,1.63,11.92,4.89c3.26,3.26,4.89,7.23,4.89,11.92s-1.63,8.63-4.89,11.9Zm-20.84-2.94c2.39,2.42,5.36,3.63,8.91,3.63s6.52-1.21,8.91-3.63c2.39-2.42,3.59-5.41,3.59-8.96s-1.2-6.58-3.59-9.01c-2.39-2.42-5.36-3.63-8.91-3.63s-6.52,1.21-8.91,3.63c-2.39,2.42-3.59,5.43-3.59,9.01s1.2,6.54,3.59,8.96Z"/>
        <path class="cls-1" d="m151,35.75l-7.26-12.41h-7.65v12.41h-4.31V3.34h12.97c2.78,0,5.16.98,7.13,2.94,1.98,1.96,2.96,4.33,2.96,7.11,0,2.1-.63,4.01-1.88,5.74-1.25,1.73-2.86,2.95-4.84,3.66l7.64,12.97h-4.77Zm-14.91-28.38v12.09h8.66c1.6,0,2.97-.59,4.1-1.78,1.13-1.19,1.69-2.62,1.69-4.28s-.56-3.09-1.69-4.26c-1.13-1.17-2.49-1.76-4.1-1.76h-8.66Z"/>
        <path class="cls-1" d="m184.66,35.75l-2.64-7.27h-14.57l-2.65,7.27h-4.58l12.09-32.41h4.86l12.09,32.41h-4.58Zm-15.75-11.3h11.64l-5.82-16-5.82,16Z"/>
        <path class="cls-1" d="m214.71,3.34v4.07h-9.58v28.34h-4.26V7.42h-9.54V3.34h23.38Z"/>
        <path class="cls-1" d="m247.33,31.45c-3.26,3.27-7.23,4.91-11.92,4.91s-8.66-1.64-11.9-4.91c-3.24-3.27-4.86-7.24-4.86-11.9s1.62-8.67,4.86-11.92c3.24-3.26,7.21-4.89,11.9-4.89s8.67,1.63,11.92,4.89c3.26,3.26,4.89,7.23,4.89,11.92s-1.63,8.63-4.89,11.9Zm-20.84-2.94c2.39,2.42,5.36,3.63,8.91,3.63s6.52-1.21,8.91-3.63c2.39-2.42,3.59-5.41,3.59-8.96s-1.2-6.58-3.59-9.01c-2.39-2.42-5.36-3.63-8.91-3.63s-6.52,1.21-8.91,3.63c-2.39,2.42-3.59,5.43-3.59,9.01s1.2,6.54,3.59,8.96Z"/>
        <path class="cls-1" d="m260.64,3.34h4.31v32.41h-4.31V3.34Z"/>
        <path class="cls-1" d="m294.35,35.75l-7.26-12.41h-7.65v12.41h-4.31V3.34h12.97c2.78,0,5.16.98,7.13,2.94,1.98,1.96,2.96,4.33,2.96,7.11,0,2.1-.63,4.01-1.88,5.74-1.25,1.73-2.86,2.95-4.84,3.66l7.64,12.97h-4.77Zm-14.91-28.38v12.09h8.66c1.6,0,2.97-.59,4.1-1.78,1.13-1.19,1.69-2.62,1.69-4.28s-.56-3.09-1.69-4.26c-1.13-1.17-2.49-1.76-4.1-1.76h-8.66Z"/>
        <path class="cls-1" d="m310.98,31.68h15.05v4.07h-19.36V3.34h19.12v4.07h-14.82v9.96h13.66v4.03h-13.66v10.28Z"/>
        <path class="cls-1" d="m12.84,57.88c4.2,0,7.7,1.49,10.47,4.48s4.17,6.64,4.17,10.96-1.39,7.97-4.17,10.96c-2.78,2.98-6.27,4.48-10.47,4.48H.8v-30.87h12.04Zm0,26.99c3.15,0,5.72-1.1,7.72-3.31,2-2.21,3-4.95,3-8.25s-1-6.04-3-8.25c-2-2.21-4.57-3.31-7.72-3.31h-7.94v23.11h7.94Z"/>
        <path class="cls-1" d="m39.43,57.84l-2.87,10.72h-3.31l1.76-10.72h4.41Z"/>
        <path class="cls-1" d="m46.99,57.25h6.21v31.5h-6.21v-31.5Z"/>
        <path class="cls-1" d="m79.43,57.25h6.21v31.5h-4.73l-13.5-19.26v19.26h-6.21v-31.5h4.72l13.5,19.19v-19.19Z"/>
        <path class="cls-1" d="m111.88,57.25h6.21v31.5h-4.73l-13.5-19.26v19.26h-6.21v-31.5h4.72l13.5,19.19v-19.19Z"/>
        <path class="cls-1" d="m152.6,84.64c-3.18,3.17-7.05,4.75-11.61,4.75s-8.42-1.58-11.59-4.75c-3.17-3.17-4.75-7.04-4.75-11.63s1.58-8.47,4.75-11.63,7.03-4.75,11.59-4.75,8.43,1.58,11.61,4.75c3.18,3.17,4.77,7.04,4.77,11.63s-1.59,8.47-4.77,11.63Zm-18.85-4.23c1.95,1.94,4.36,2.9,7.24,2.9s5.29-.97,7.25-2.9c1.95-1.93,2.93-4.4,2.93-7.4s-.98-5.47-2.93-7.42c-1.95-1.95-4.36-2.93-7.25-2.93s-5.29.98-7.24,2.93c-1.95,1.95-2.93,4.43-2.93,7.42s.97,5.47,2.93,7.4Z"/>
        <path class="cls-1" d="m170.29,88.75l-10.57-31.5h6.75l7.7,24.22,7.64-24.22h6.79l-10.62,31.5h-7.7Z"/>
        <path class="cls-1" d="m212.68,88.75l-2-5.67h-12.94l-1.89,5.67h-6.7l11.02-31.5h7.69l11.11,31.5h-6.3Zm-12.92-11.47h8.87l-4.55-12.87-4.32,12.87Z"/>
        <path class="cls-1" d="m242.74,57.25v5.94h-8.5v25.56h-6.21v-25.56h-8.46v-5.94h23.17Z"/>
        <path class="cls-1" d="m248.36,57.25h6.21v31.5h-6.21v-31.5Z"/>
        <path class="cls-1" d="m289.09,84.64c-3.18,3.17-7.05,4.75-11.61,4.75s-8.42-1.58-11.59-4.75c-3.17-3.17-4.75-7.04-4.75-11.63s1.58-8.47,4.75-11.63,7.03-4.75,11.59-4.75,8.43,1.58,11.61,4.75c3.18,3.17,4.77,7.04,4.77,11.63s-1.59,8.47-4.77,11.63Zm-18.85-4.23c1.95,1.94,4.36,2.9,7.24,2.9s5.29-.97,7.25-2.9c1.95-1.93,2.93-4.4,2.93-7.4s-.98-5.47-2.93-7.42c-1.95-1.95-4.36-2.93-7.25-2.93s-5.29.98-7.24,2.93c-1.95,1.95-2.93,4.43-2.93,7.42s.97,5.47,2.93,7.4Z"/>
        <path class="cls-1" d="m318.6,57.25h6.21v31.5h-4.73l-13.5-19.26v19.26h-6.21v-31.5h4.72l13.5,19.19v-19.19Z"/>
        <path class="cls-1" d="m95.32,110.25h6.21v31.5h-4.73l-13.5-19.26v19.26h-6.21v-31.5h4.72l13.5,19.19v-19.19Z"/>
        <path class="cls-1" d="m130.96,141.75l-2-5.67h-12.94l-1.89,5.67h-6.7l11.02-31.5h7.69l11.11,31.5h-6.3Zm-12.92-11.47h8.87l-4.55-12.87-4.32,12.87Z"/>
        <path class="cls-1" d="m161.74,110.25v5.94h-8.5v25.56h-6.21v-25.56h-8.46v-5.94h23.17Z"/>
        <path class="cls-1" d="m179.83,142.38c-3.51,0-6.39-.99-8.64-2.97-2.25-1.98-3.38-4.63-3.38-7.96v-21.2h6.17v20.7c0,1.65.47,2.96,1.42,3.92.95.96,2.42,1.44,4.43,1.44s3.49-.48,4.43-1.44,1.42-2.26,1.42-3.92v-20.7h6.21v21.2c0,3.33-1.12,5.98-3.38,7.96-2.25,1.98-5.15,2.97-8.69,2.97Z"/>
        <path class="cls-1" d="m217.63,141.75l-6.37-10.93h-4.7v10.93h-6.21v-31.5h12.6c2.91,0,5.38,1.02,7.43,3.06,2.04,2.04,3.06,4.5,3.06,7.38,0,1.95-.56,3.76-1.66,5.42-1.11,1.67-2.58,2.92-4.41,3.76l6.97,11.88h-6.71Zm-11.07-25.7v9.32h6.39c1.17,0,2.17-.46,3.02-1.37.84-.91,1.26-2.02,1.26-3.31s-.42-2.39-1.26-3.29c-.84-.9-1.85-1.35-3.02-1.35h-6.39Z"/>
        <path class="cls-1" d="m237.06,135.81h13.28v5.94h-19.49v-31.5h19.26v5.94h-13.05v6.7h11.93v5.85h-11.93v7.06Z"/>
        <path class="cls-1" d="m263.79,135.81h12.02v5.94h-18.23v-31.5h6.21v25.56Z"/>
        <path class="cls-1" d="m288.41,135.81h12.02v5.94h-18.23v-31.5h6.21v25.56Z"/>
        <path class="cls-1" d="m313.02,135.81h13.28v5.94h-19.49v-31.5h19.26v5.94h-13.05v6.7h11.93v5.85h-11.93v7.06Z"/>
      </g>
      <path class="cls-2" d="m71.62,139.59H.71"/>
    </g>
  </g>
</svg>