<svg width="184" height="179" viewBox="0 0 184 179" fill="none" xmlns="http://www.w3.org/2000/svg">
<ellipse cx="92" cy="89.5" rx="92" ry="89.5" fill="#F7F7F7"/>
<path d="M52.4941 75.7449C52.7528 75.7449 53.001 75.7449 53.265 75.7449C53.265 80.7455 53.265 85.7408 53.265 90.7572C53.0116 90.7572 52.7634 90.7572 52.4941 90.7572C52.4941 85.7566 52.4941 80.7613 52.4941 75.7449Z" fill="black"/>
<path d="M121.449 67.6784C121.296 67.6784 121.153 67.5885 121.084 67.4405C118.096 60.6744 112.848 55.0448 106.307 51.5824C106.111 51.482 106.037 51.2388 106.143 51.0485C106.243 50.8529 106.486 50.7789 106.676 50.8847C113.376 54.4316 118.746 60.1987 121.808 67.1234C121.898 67.3242 121.808 67.5568 121.607 67.6467C121.554 67.6678 121.502 67.6784 121.449 67.6784Z" fill="black"/>
<path d="M104.945 122.891H76.883C75.0879 122.891 73.5937 121.544 73.4036 119.757C73.0341 116.279 71.994 112.959 70.3045 109.898C70.1989 109.708 70.2675 109.465 70.4576 109.359C70.6476 109.254 70.8905 109.322 70.9961 109.513C72.7384 112.668 73.8102 116.088 74.1903 119.672C74.3382 121.057 75.4944 122.099 76.8777 122.099H104.939C106.328 122.099 107.484 121.057 107.627 119.672C108.102 115.19 109.707 110.866 112.278 107.166L114.77 103.576C114.781 103.56 114.797 103.545 114.807 103.529C117.13 101.081 119.057 98.3061 120.541 95.2772C120.546 95.2667 120.551 95.2561 120.557 95.2455C122.42 91.4184 123.513 87.3218 123.804 83.0612C123.856 82.3106 123.883 81.5441 123.883 80.7829C123.883 80.5662 124.062 80.3865 124.279 80.3865C124.495 80.3865 124.675 80.5662 124.675 80.7829C124.675 81.56 124.648 82.3423 124.596 83.1141C124.3 87.4856 123.175 91.688 121.259 95.6155C119.744 98.7184 117.774 101.552 115.404 104.052L112.928 107.615C110.43 111.204 108.873 115.401 108.413 119.752C108.234 121.544 106.74 122.891 104.945 122.891Z" fill="black"/>
<path d="M60.9172 95.8477C60.801 95.8477 60.6796 95.7948 60.6057 95.6891C60.5898 95.668 60.574 95.6416 60.5634 95.6204C58.2932 90.9687 57.1422 85.9681 57.1475 80.7561C57.1475 80.5393 57.327 80.3596 57.5435 80.3596C57.7599 80.3596 57.9394 80.5393 57.9394 80.7561C57.9342 85.8465 59.0587 90.7308 61.2762 95.2715C61.3079 95.3402 61.3237 95.4195 61.3132 95.4935C61.3026 95.5993 61.2498 95.6997 61.1601 95.7631C61.0861 95.8213 61.0017 95.8477 60.9172 95.8477Z" fill="black"/>
<path d="M61.7336 65.0143C61.6702 65.0143 61.6016 64.9985 61.5435 64.9668C61.3534 64.861 61.2848 64.6179 61.3904 64.4276C67.0291 54.2837 77.2612 47.7924 88.7498 47.0524C88.9716 47.0471 89.1564 47.2057 89.1722 47.4224C89.188 47.6391 89.0191 47.8294 88.8026 47.8453C77.5832 48.5642 67.5941 54.9074 62.082 64.8135C62.0081 64.9403 61.8709 65.0143 61.7336 65.0143Z" fill="black"/>
<path d="M90.9155 131.238H76.9507C76.7342 131.238 76.5547 131.058 76.5547 130.841V122.495C76.5547 122.278 76.7342 122.098 76.9507 122.098C77.1671 122.098 77.3466 122.278 77.3466 122.495V130.445H90.9155C91.1319 130.445 91.3115 130.625 91.3115 130.841C91.3115 131.058 91.1319 131.238 90.9155 131.238Z" fill="black"/>
<path d="M90.9155 139.674H80.525C78.3339 139.674 76.5547 137.893 76.5547 135.699V130.841C76.5547 130.625 76.7342 130.445 76.9507 130.445C77.1671 130.445 77.3466 130.625 77.3466 130.841V135.699C77.3466 137.454 78.7722 138.881 80.525 138.881H90.9155C91.1319 138.881 91.3115 139.061 91.3115 139.278C91.3115 139.495 91.1319 139.674 90.9155 139.674Z" fill="black"/>
<path d="M90.9149 146.224H86.5539C83.7451 146.224 81.459 143.935 81.459 141.123V139.278C81.459 139.061 81.6385 138.882 81.855 138.882C82.0714 138.882 82.2509 139.061 82.2509 139.278V141.123C82.2509 143.502 84.1833 145.431 86.5539 145.431H90.9149C91.1314 145.431 91.3109 145.611 91.3109 145.827C91.3109 146.044 91.1314 146.224 90.9149 146.224Z" fill="black"/>
<path d="M104.878 131.238H90.9136C90.6971 131.238 90.5176 131.058 90.5176 130.841C90.5176 130.625 90.6971 130.445 90.9136 130.445H104.482V122.495C104.482 122.278 104.662 122.098 104.878 122.098C105.095 122.098 105.274 122.278 105.274 122.495V130.841C105.274 131.058 105.095 131.238 104.878 131.238Z" fill="black"/>
<path d="M101.304 139.674H90.9136C90.6971 139.674 90.5176 139.495 90.5176 139.278C90.5176 139.061 90.6971 138.881 90.9136 138.881H101.304C103.057 138.881 104.482 137.454 104.482 135.699V130.841C104.482 130.625 104.662 130.445 104.878 130.445C105.095 130.445 105.274 130.625 105.274 130.841V135.699C105.274 137.893 103.49 139.674 101.304 139.674Z" fill="black"/>
<path d="M95.2746 146.224H90.9136C90.6971 146.224 90.5176 146.044 90.5176 145.827C90.5176 145.611 90.6971 145.431 90.9136 145.431H95.2746C97.6505 145.431 99.5828 143.496 99.5828 141.123V139.278C99.5828 139.061 99.7623 138.882 99.9788 138.882C100.195 138.882 100.375 139.061 100.375 139.278V141.123C100.37 143.935 98.0834 146.224 95.2746 146.224Z" fill="black"/>
<path d="M90.9047 112.081C89.5953 112.081 88.3546 111.775 87.1931 111.167C81.3695 108.101 79.6008 98.512 79.5269 98.1049C79.5058 97.9886 79.5375 97.8724 79.6114 97.7825C79.6853 97.6926 79.7909 97.6398 79.9071 97.6398C83.6081 97.5605 86.7179 98.0415 89.1677 99.0723C89.3683 99.1569 89.4633 99.3894 89.3789 99.5903C89.2944 99.7912 89.0621 99.8863 88.8614 99.8018C86.6176 98.8608 83.7613 98.3904 80.3981 98.4274C80.8257 100.373 82.7739 107.953 87.5574 110.469C89.7484 111.621 92.2721 111.563 95.0704 110.289C95.271 110.199 95.5033 110.284 95.5931 110.485C95.6828 110.686 95.5931 110.918 95.3977 111.008C93.8244 111.722 92.3249 112.081 90.9047 112.081Z" fill="black"/>
<path d="M96.1899 105.865C95.9523 105.865 95.7147 105.859 95.4719 105.854C95.3452 105.849 95.229 105.785 95.1551 105.68C94.9967 105.447 91.3273 99.8757 93.3864 93.3051C95.1023 87.8394 100.245 83.4097 108.666 80.1376C108.777 80.0953 108.893 80.1006 108.998 80.1588C109.099 80.2116 109.173 80.312 109.199 80.4231C109.326 80.9939 112.182 94.5103 106.232 101.652C103.904 104.448 100.525 105.865 96.1899 105.865ZM95.7095 105.067C100.028 105.183 103.37 103.851 105.625 101.144C110.735 95.0125 108.962 83.489 108.513 81.0521C100.588 84.2079 95.757 88.4103 94.1467 93.5324C92.3938 99.1198 95.1287 104.099 95.7095 105.067Z" fill="black"/>
<path d="M95.4873 105.849C95.4715 105.849 95.4556 105.849 95.4451 105.849C95.2286 105.823 95.0702 105.627 95.0966 105.41C95.1389 105.019 96.2318 95.8108 102.361 90.3609C102.525 90.2182 102.773 90.2287 102.921 90.3926C103.069 90.5565 103.053 90.8049 102.889 90.9529C96.992 96.1967 95.8939 105.405 95.8833 105.495C95.8569 105.701 95.688 105.849 95.4873 105.849Z" fill="black"/>
<path d="M95.2829 110.929C95.2777 110.929 95.2777 110.929 95.2829 110.929C95.0612 110.929 94.887 110.749 94.887 110.532C94.887 110.368 94.8183 106.446 88.3982 104.342C88.1923 104.274 88.0761 104.052 88.1448 103.84C88.2134 103.629 88.4352 103.518 88.6464 103.586C95.6525 105.886 95.6842 110.347 95.6842 110.538C95.6736 110.754 95.4994 110.929 95.2829 110.929Z" fill="black"/>
<path d="M95.3712 122.421C95.1548 122.421 94.9753 122.246 94.9753 122.024L94.9277 105.453C94.9277 105.236 95.102 105.056 95.3237 105.056C95.5402 105.056 95.7197 105.231 95.7197 105.453L95.7672 122.024C95.7672 122.246 95.593 122.421 95.3712 122.421Z" fill="black"/>
<path d="M62.6948 106.393C62.4783 106.393 62.2988 106.214 62.2988 105.997V97.46C62.2988 97.2433 62.4783 97.0636 62.6948 97.0636H63.5554C63.6979 97.0636 63.8299 97.1376 63.8986 97.2645L68.6345 105.564H68.7929V97.2697C68.7929 97.053 68.9724 96.8733 69.1888 96.8733C69.4053 96.8733 69.5848 97.053 69.5848 97.2697V105.96C69.5848 106.177 69.4053 106.356 69.1888 106.356H68.4074C68.2649 106.356 68.1329 106.282 68.0643 106.156L63.3284 97.8565H63.0961V105.997C63.0908 106.214 62.9113 106.393 62.6948 106.393Z" fill="black"/>
<path d="M98.2817 50.7157C95.6049 50.7157 93.4297 48.5379 93.4297 45.8579C93.4297 43.1778 95.6049 41 98.2817 41C100.959 41 103.134 43.1778 103.134 45.8579C103.134 48.5379 100.959 50.7157 98.2817 50.7157ZM98.2817 41.7876C96.0431 41.7876 94.2216 43.6113 94.2216 45.8526C94.2216 48.0939 96.0431 49.9175 98.2817 49.9175C100.52 49.9175 102.342 48.0939 102.342 45.8526C102.347 43.6113 100.526 41.7876 98.2817 41.7876Z" fill="black"/>
<path d="M115.826 79.1388C113.149 79.1388 110.974 76.961 110.974 74.281C110.974 71.6009 113.149 69.4231 115.826 69.4231C118.502 69.4231 120.678 71.6009 120.678 74.281C120.678 76.961 118.502 79.1388 115.826 79.1388ZM115.826 70.216C113.587 70.216 111.766 72.0397 111.766 74.281C111.766 76.5222 113.587 78.3459 115.826 78.3459C118.064 78.3459 119.886 76.5222 119.886 74.281C119.886 72.0397 118.064 70.216 115.826 70.216Z" fill="black"/>
<path d="M121.964 78.922C121.748 78.922 121.568 78.7423 121.568 78.5256V70.0573C121.568 69.8406 121.748 69.6609 121.964 69.6609C122.181 69.6609 122.36 69.8406 122.36 70.0573V78.5256C122.36 78.7423 122.181 78.922 121.964 78.922Z" fill="black"/>
<path d="M128.818 78.7952C128.601 78.7952 128.422 78.6154 128.422 78.3987V69.9358C128.422 69.719 128.601 69.5393 128.818 69.5393C129.034 69.5393 129.214 69.719 129.214 69.9358V78.404C129.214 78.6207 129.034 78.7952 128.818 78.7952Z" fill="black"/>
<path d="M128.846 74.3813H121.982C121.765 74.3813 121.586 74.2016 121.586 73.9848C121.586 73.7681 121.765 73.5884 121.982 73.5884H128.846C129.062 73.5884 129.242 73.7681 129.242 73.9848C129.242 74.2016 129.067 74.3813 128.846 74.3813Z" fill="black"/>
<path d="M100.457 65.5959C100.225 65.5959 100.04 65.4109 100.04 65.1783V52.8407C100.04 52.6081 100.225 52.4231 100.457 52.4231C100.689 52.4231 100.874 52.6081 100.874 52.8407V65.173C100.874 65.4056 100.684 65.5959 100.457 65.5959Z" fill="black"/>
<path d="M96.961 65.3581C96.7287 65.3581 96.5439 65.1731 96.5439 64.9405V52.9042C96.5439 52.6716 96.7287 52.4866 96.961 52.4866C97.1933 52.4866 97.3781 52.6716 97.3781 52.9042V64.9458C97.3781 65.1731 97.1933 65.3581 96.961 65.3581Z" fill="black"/>
<path d="M72.2362 98.7183C72.0937 98.7183 71.9511 98.6443 71.8719 98.5069C71.7558 98.306 71.8244 98.0523 72.0251 97.936L81.8453 92.3011V73.8105C81.8453 73.6625 81.9245 73.5251 82.0512 73.4511L98.5345 63.8199C98.6664 63.7459 98.8248 63.7459 98.9568 63.8199L109.516 69.9887C109.717 70.105 109.78 70.3587 109.664 70.5596C109.548 70.7605 109.294 70.8292 109.094 70.7076L98.7456 64.6657L82.6848 74.0484V92.5442C82.6848 92.6922 82.6056 92.8297 82.4736 92.909L72.4422 98.6655C72.3788 98.7025 72.3049 98.7183 72.2362 98.7183Z" fill="black"/>
<path d="M70.3625 95.9587C70.2146 95.9587 70.0721 95.8794 69.9982 95.7419C69.8873 95.5411 69.9559 95.2873 70.1566 95.1763L78.6622 90.4189C78.8628 90.3079 79.1162 90.3766 79.2271 90.5775C79.338 90.7783 79.2693 91.0321 79.0687 91.1431L70.5631 95.9005C70.4997 95.9428 70.4311 95.9587 70.3625 95.9587Z" fill="black"/>
<path d="M61.0333 96.1385C60.8802 96.1385 60.7324 96.0539 60.6585 95.9059C56.4294 87.2632 57.0683 80.6292 57.1 80.3491C57.1264 80.1218 57.327 79.9526 57.5593 79.979C57.7863 80.0055 57.9553 80.2063 57.9289 80.4389C57.9236 80.5024 57.2953 87.131 61.4082 95.5411C61.5085 95.7473 61.424 96.001 61.2181 96.1015C61.1548 96.1226 61.0967 96.1385 61.0333 96.1385Z" fill="black"/>
<path d="M52.8185 91.1433C52.5862 91.1433 52.4014 90.9583 52.4014 90.7257V75.7504C52.4014 75.5178 52.5862 75.3328 52.8185 75.3328C53.0508 75.3328 53.2356 75.5178 53.2356 75.7504V90.7257C53.2356 90.9583 53.0508 91.1433 52.8185 91.1433Z" fill="black"/>
<path d="M78.9254 76.1679C78.8568 76.1679 78.7829 76.1521 78.7195 76.1151L65.6364 68.593C65.4358 68.4767 65.3671 68.223 65.4833 68.0221C65.5994 67.8213 65.8529 67.7525 66.0535 67.8688L79.1366 75.3856C79.3372 75.5019 79.4059 75.7556 79.2897 75.9565C79.2105 76.0939 79.068 76.1679 78.9254 76.1679Z" fill="black"/>
<path d="M59.3905 98.8977C59.3165 98.8977 59.2479 98.8766 59.1793 98.8396L49.2059 92.9668C49.0792 92.8928 49 92.7553 49 92.6073V73.8102C49 73.6622 49.0792 73.5247 49.2059 73.4507L65.6311 63.9359C65.7578 63.8619 65.9215 63.8619 66.0482 63.9359L82.4733 73.4507C82.674 73.567 82.7426 73.8208 82.6264 74.0216C82.5103 74.2225 82.2569 74.2912 82.0562 74.1749L65.8423 64.7764L49.8342 74.0533V92.3695L59.6016 98.1207C59.8023 98.237 59.8656 98.496 59.7495 98.6916C59.6703 98.8237 59.533 98.8977 59.3905 98.8977Z" fill="black"/>
</svg>
